<?xml version="1.0" encoding="UTF-8" standalone="no"?>
<!-- Created with Inkscape (http://www.inkscape.org/) -->

<svg
   xmlns:dc="http://purl.org/dc/elements/1.1/"
   xmlns:cc="http://creativecommons.org/ns#"
   xmlns:rdf="http://www.w3.org/1999/02/22-rdf-syntax-ns#"
   xmlns:svg="http://www.w3.org/2000/svg"
   xmlns="http://www.w3.org/2000/svg"
   xmlns:sodipodi="http://sodipodi.sourceforge.net/DTD/sodipodi-0.dtd"
   xmlns:inkscape="http://www.inkscape.org/namespaces/inkscape"
   version="1.1"
   id="svg2"
   width="682.66669"
   height="682.66669"
   viewBox="0 0 682.66669 682.66669"
   sodipodi:docname="android-chrome-512x512.svg"
   inkscape:version="0.92.5 (2060ec1f9f, 2020-04-08)">
  <metadata
     id="metadata8">
    <rdf:RDF>
      <cc:Work
         rdf:about="">
        <dc:format>image/svg+xml</dc:format>
        <dc:type
           rdf:resource="http://purl.org/dc/dcmitype/StillImage" />
      </cc:Work>
    </rdf:RDF>
  </metadata>
  <defs
     id="defs6" />
  <sodipodi:namedview
     pagecolor="#ffffff"
     bordercolor="#666666"
     borderopacity="1"
     objecttolerance="10"
     gridtolerance="10"
     guidetolerance="10"
     inkscape:pageopacity="0"
     inkscape:pageshadow="2"
     inkscape:window-width="1920"
     inkscape:window-height="1016"
     id="namedview4"
     showgrid="true"
     inkscape:zoom="0.63793943"
     inkscape:cx="118.36472"
     inkscape:cy="399.13368"
     inkscape:window-x="0"
     inkscape:window-y="27"
     inkscape:window-maximized="1"
     inkscape:current-layer="svg2" />
  <g
     id="g3774"
     transform="translate(0.22196914,-0.12295082)">
     <path
       style="fill:#242424;stroke-width:1.33333373"
       d="M 50.532748,680.68498 C 39.669555,678.30669 29.849274,672.5099 20.003032,662.66366 9.7363059,652.39694 4.4074726,643.06649 1.8618078,630.89951 -0.91656145,617.62033 -0.91656145,65.046369 1.8618078,51.76718 4.4074726,39.600203 9.7363059,30.269746 20.003032,20.003023 30.26976,9.7363017 39.60022,4.4074707 51.767203,1.861807 c 13.279194,-2.77836804 565.853397,-2.77836804 579.132587,0 12.16698,2.5456637 21.49744,7.8744947 31.76416,18.141216 10.26673,10.266723 15.59557,19.59718 18.14123,31.764157 2.77837,13.279189 2.77837,565.85315 0,579.13233 -2.54566,12.16698 -7.8745,21.49743 -18.14123,31.76415 -10.26672,10.26672 -19.59718,15.59556 -31.76416,18.14122 -12.31034,2.57566 -568.579607,2.46074 -580.367042,-0.11987 z M 286.6668,455.476 c 0,-38.15427 0.24594,-43.28505 2.10906,-44 1.15997,-0.44513 17.20998,-0.82104 35.66668,-0.83535 34.05344,-0.0264 53.43136,-1.67966 69.29238,-5.91174 46.21286,-12.33063 75.89453,-41.68842 84.35297,-83.43254 2.75491,-13.59601 2.01278,-42.89556 -1.4006,-55.29636 -11.90612,-43.25502 -48.26403,-71.7789 -102.02045,-80.03815 -10.03728,-1.54215 -29.20412,-1.94776 -92.33337,-1.95399 l -79.66671,-0.008 V 341.3332 498.66654 h 42.00002 42.00002 z m 0.60694,-111.81752 c -0.3535,-0.92117 -0.48466,-22.37118 -0.29148,-47.66667 l 0.35121,-45.9918 31.33305,-0.35872 c 34.51398,-0.39515 40.9859,0.39896 53.26706,6.53592 15.43864,7.71479 23.0691,21.3278 23.0691,41.15613 0,25.1861 -12.66387,40.8186 -37.29532,46.03802 -12.1252,2.56932 -69.46816,2.80309 -70.43362,0.28712 z"
       id="path3788"
       inkscape:connector-curvature="0" />
    <path
       style="fill:#242424;stroke-width:1.33333373"
       d="M 52.84546,680.55141 C 28.847459,674.74276 7.7620874,653.42918 2.0530455,629.20926 0.29068756,621.73267 0.03941625,585.80999 0.03941625,341.33334 0.03941625,33.421976 -0.50839235,53.498551 8.3465829,36.884924 13.823495,26.60919 26.609202,13.823488 36.88494,8.3465792 53.498575,-0.50839212 33.42199,0.03941623 341.3335,0.03941623 c 307.9115,0 287.83492,-0.54780835 304.44855,8.30716297 10.27574,5.4769088 23.06144,18.2626108 28.53836,28.5383448 8.85497,16.613627 8.30717,-3.462948 8.30717,304.448416 0,244.47665 -0.25128,280.39933 -2.01363,287.87592 -5.78659,24.54886 -26.85555,45.6178 -51.40441,51.40439 -12.47761,2.94117 -564.201833,2.8816 -576.36408,-0.0623 z m 235.15468,-224.55139 0.66666,-43.33334 41.33336,-0.81321 c 45.36212,-0.89248 53.84706,-1.96862 75.78374,-9.61163 19.25651,-6.7092 31.78491,-14.47709 45.54965,-28.24183 13.62364,-13.62364 21.07111,-26.10826 26.24737,-44 2.67008,-9.22913 3.08597,-13.63159 3.08597,-32.66667 0,-18.99772 -0.41849,-23.44536 -3.06666,-32.59121 -12.53009,-43.27459 -49.36788,-72.19011 -101.90757,-79.9915 -11.52289,-1.71098 -28.38158,-2.08396 -94.19698,-2.08396 h -80.16225 v 158.68514 158.68515 l 43.00002,-0.35181 43.00002,-0.3518 z m 0.60644,-113.67615 c -0.35376,-0.92188 -0.48492,-21.77189 -0.29148,-46.33334 l 0.3517,-44.65719 34.66669,0.0307 c 33.39576,0.0296 34.95961,0.14748 42.65686,3.21684 10.93095,4.35883 22.03671,15.46436 25.30512,25.30457 3.0895,9.30167 3.1453,25.42618 0.11946,34.53599 -4.64871,13.99595 -18.63409,24.92256 -35.99303,28.12091 -11.56102,2.13011 -65.98243,1.95217 -66.81538,-0.21845 z"
       id="path3786"
       inkscape:connector-curvature="0" />
    <path
       style="fill:#f2ca01;stroke-width:1.33333373"
       d="M 54.831694,680.56318 C 35.853486,675.45878 17.8029,661.21036 8.9344594,644.33369 -0.70252123,625.99449 0,649.81956 0,341.33334 0,32.847129 -0.70252123,56.672205 8.9344594,38.333005 15.141741,26.520533 26.520545,15.141734 38.333022,8.9344555 56.67223,-0.70252092 32.847144,0 341.3335,0 c 308.48634,0 284.66126,-0.70252092 303.00047,8.9344555 11.81247,6.2072785 23.19128,17.5860775 29.39856,29.3985495 9.63698,18.3392 8.93446,-5.485876 8.93446,303.000335 0,308.48622 0.70252,284.66115 -8.93446,303.00035 -6.20728,11.81247 -17.58609,23.19127 -29.39856,29.39855 -18.34833,9.64176 5.59671,8.94405 -303.61394,8.8467 -238.73555,-0.0752 -279.748352,-0.36433 -285.888336,-2.01576 z M 288.28707,501.00002 c 0.15781,-0.18334 0.60781,-19.83334 1,-43.66667 l 0.71307,-43.33334 40.00002,-0.78908 c 33.97127,-0.67014 42.05987,-1.22658 53.66688,-3.69194 30.8109,-6.54432 50.42785,-16.59059 69.05848,-35.36638 10.07347,-10.15197 13.10223,-14.26093 18.39782,-24.95944 7.92075,-16.002 11.50853,-32.16927 11.50853,-51.85983 0,-63.24253 -42.27647,-106.0046 -113.29836,-114.59975 -8.59565,-1.04025 -37.73563,-1.40448 -90.66671,-1.13325 l -78.00004,0.39967 -0.34313,158 c -0.18872,86.9 -0.0576,158.75001 0.29148,159.66667 0.48975,1.28618 10.53702,1.66667 44.00983,1.66667 23.85636,0 43.50432,-0.15 43.66213,-0.33333 z m 1.0464,-203.76626 v -45.43292 l 34.33335,0.47612 c 32.39848,0.4493 34.78187,0.65432 42.29203,3.63798 10.76866,4.2782 20.76895,14.28708 24.10703,24.12775 3.19289,9.41263 3.26531,24.95861 0.15885,34.10304 -2.78199,8.18933 -9.75882,16.68755 -17.35454,21.13893 -10.18131,5.96664 -20.11164,7.34081 -53.20337,7.36231 l -30.33335,0.0197 z"
       id="path3784"
       inkscape:connector-curvature="0" /> 
    <path
       style="fill:#242424;stroke-width:1.33333373"
       d="M 60.666695,681.38944 C 44.124442,677.17154 32.11013,670.71884 22.028996,660.6377 13.529109,652.13782 9.2737383,645.2228 4.323056,631.86534 L 0.66666698,622.00002 V 341.33334 60.666669 L 4.323056,50.801352 C 9.2737383,37.443899 13.529109,30.528869 22.028996,22.028986 30.528882,13.529103 37.443915,9.2737342 50.801375,4.3230541 l 9.86532,-3.65638741 H 341.3335 622.00029 l 9.86533,3.65638741 c 13.35746,4.9506801 20.27249,9.2060489 28.77237,17.7059319 8.49989,8.499883 12.75526,15.414913 17.70594,28.772366 l 3.65639,9.865317 V 341.33334 622.00002 l -3.65639,9.86532 c -4.95068,13.35746 -9.20605,20.27248 -17.70594,28.77236 -8.21237,8.21238 -14.93299,12.44674 -28.05494,17.67619 l -9.24942,3.68613 -279.33347,0.20466 c -153.6334,0.11257 -281.133464,-0.2543 -283.333465,-0.81524 z M 287.64771,501.57938 c 1.23928,-0.78715 1.73492,-11.6034 2,-43.64626 l 0.35243,-42.59977 37.33335,-0.86666 c 23.7513,-0.55136 42.01719,-1.63626 50.20797,-2.98213 54.95577,-9.03001 91.98412,-39.76752 103.39618,-85.82994 3.20234,-12.92554 3.11216,-44.40452 -0.16324,-56.98794 -5.68955,-21.85808 -15.03154,-37.66787 -31.25109,-52.88738 -12.4651,-11.69656 -26.52007,-19.98975 -43.97914,-25.95011 -25.46392,-8.69312 -26.91258,-8.80782 -119.29009,-9.44568 -63.72121,-0.43998 -84.20533,-0.19712 -85.6667,1.01571 -1.65219,1.3712 -1.92062,23.70927 -1.92062,159.83071 0,121.29526 0.37353,158.61029 1.6,159.83675 1.83984,1.83984 84.52765,2.32499 87.38095,0.5127 z m 3.28576,-160.5127 c -1.90339,-1.90339 -2.29291,-84.57534 -0.41247,-87.54308 0.93043,-1.46842 7.02503,-1.69666 32.31294,-1.21012 27.32957,0.52581 32.25828,0.95546 40.03734,3.49017 11.23274,3.66007 20.82188,11.94271 25.26622,21.82379 4.51742,10.04353 4.58134,29.35484 0.1292,39.03924 -6.66809,14.50466 -19.17341,22.26346 -39.66732,24.61117 -17.08025,1.95666 -55.63928,1.81546 -57.66591,-0.21117 z m 259.79611,-58.4 c 4.1189,0 11.7619,-7.73014 13.30349,-13.45514 3.95552,-14.68969 -10.30407,-28.62911 -24.49553,-23.9455 -14.25825,4.70564 -18.40512,22.32193 -7.67461,32.60241 3.86842,3.70617 11.11811,6.35444 14.57972,5.32587 0.97664,-0.2902 2.90576,-0.52764 4.28693,-0.52764 z"
       id="path3780"
       inkscape:connector-curvature="0" />
    <path
       style="fill:#242424;stroke-width:1.33333373"
       d="M 60.666695,681.38944 C 44.124442,677.17154 32.11013,670.71884 22.028996,660.6377 13.529109,652.13782 9.2737383,645.2228 4.323056,631.86534 L 0.66666698,622.00002 V 341.33334 60.666669 L 4.323056,50.801352 C 9.2737383,37.443899 13.529109,30.528869 22.028996,22.028986 30.528882,13.529103 37.443915,9.2737342 50.801375,4.3230541 l 9.86532,-3.65638741 H 341.3335 622.00029 l 9.86533,3.65638741 c 13.35746,4.9506801 20.27249,9.2060489 28.77237,17.7059319 8.49989,8.499883 12.75526,15.414913 17.70594,28.772366 l 3.65639,9.865317 V 341.33334 622.00002 l -3.65639,9.86532 c -4.95068,13.35746 -9.20605,20.27248 -17.70594,28.77236 -8.21237,8.21238 -14.93299,12.44674 -28.05494,17.67619 l -9.24942,3.68613 -279.33347,0.20466 c -153.6334,0.11257 -281.133464,-0.2543 -283.333465,-0.81524 z M 287.64771,501.57938 c 1.23928,-0.78715 1.73492,-11.6034 2,-43.64626 l 0.35243,-42.59977 37.33335,-0.86666 c 23.7513,-0.55136 42.01719,-1.63626 50.20797,-2.98213 54.95577,-9.03001 91.98412,-39.76752 103.39618,-85.82994 3.20234,-12.92554 3.11216,-44.40452 -0.16324,-56.98794 -5.68955,-21.85808 -15.03154,-37.66787 -31.25109,-52.88738 -12.4651,-11.69656 -26.52007,-19.98975 -43.97914,-25.95011 -25.46392,-8.69312 -26.91258,-8.80782 -119.29009,-9.44568 -63.72121,-0.43998 -84.20533,-0.19712 -85.6667,1.01571 -1.65219,1.3712 -1.92062,23.70927 -1.92062,159.83071 0,121.29526 0.37353,158.61029 1.6,159.83675 1.83984,1.83984 84.52765,2.32499 87.38095,0.5127 z m 3.28576,-160.5127 c -1.90339,-1.90339 -2.29291,-84.57534 -0.41247,-87.54308 0.93043,-1.46842 7.02503,-1.69666 32.31294,-1.21012 27.32957,0.52581 32.25828,0.95546 40.03734,3.49017 11.23274,3.66007 20.82188,11.94271 25.26622,21.82379 4.51742,10.04353 4.58134,29.35484 0.1292,39.03924 -6.66809,14.50466 -19.17341,22.26346 -39.66732,24.61117 -17.08025,1.95666 -55.63928,1.81546 -57.66591,-0.21117 z m 266.12209,-59.30355 c 9.5206,-7.05201 12.32816,-18.62239 6.85447,-28.24825 -3.93499,-6.91994 -8.64147,-9.91226 -16.63286,-10.57497 -13.38417,-1.10992 -22.06217,6.30202 -22.99431,19.63957 -0.42883,6.13582 0.0267,8.22297 2.63112,12.05546 5.34849,7.87048 11.27779,11.02759 19.47491,10.36955 4.22369,-0.33907 8.50469,-1.63996 10.66667,-3.24136 z"
       id="path3778"
       inkscape:connector-curvature="0" />
    <path
       style="fill:#242424;stroke-width:1.33333373"
       d="m 63.00003,681.7114 c -2.383335,-0.30084 -4.333336,-1.0422 -4.333336,-1.64747 0,-0.60525 -2.057971,-1.48655 -4.57327,-1.95841 -2.515298,-0.47188 -8.802301,-2.97366 -13.971118,-5.55951 -16.156715,-8.08287 -29.952204,-24.62356 -34.9287498,-41.87932 -0.9517171,-3.3 -2.3596059,-6.42812 -3.1286419,-6.95138 -1.96531299,-1.33718 -1.96531299,-563.426741 0,-564.763941 0.769036,-0.523252 2.1769248,-3.651367 3.1286419,-6.951367 C 11.398931,30.483377 30.48339,11.398926 52.000025,5.1935539 c 3.300001,-0.9517167 6.428117,-2.3596049 6.95137,-3.1286405 1.3372,-1.96531213 563.427005,-1.96531213 564.764195,0 0.52325,0.7690356 3.65137,2.1769238 6.95138,3.1286405 21.51663,6.2053721 40.60109,25.2898231 46.80646,46.8064481 0.95172,3.3 2.35961,6.428115 3.12865,6.951367 1.96531,1.3372 1.96531,563.426761 0,564.763941 -0.76904,0.52326 -2.17693,3.65138 -3.12865,6.95138 -6.20537,21.51663 -25.28983,40.60108 -46.80646,46.80644 -3.30001,0.95172 -6.42809,2.35961 -6.95129,3.12865 -0.65804,0.96722 -86.56003,1.43807 -278.6668,1.52743 -152.74354,0.0711 -279.665516,-0.11696 -282.04885,-0.41781 z M 288.40406,502.33335 c 2.01254,-1.49281 2.28253,-6.1174 2.58817,-44.33333 l 0.34124,-42.66667 41.33335,-0.74024 c 43.92325,-0.78663 51.29968,-1.6736 72.39115,-8.70464 54.72079,-18.24168 85.51937,-65.87081 78.97805,-122.1373 -5.92342,-50.95132 -37.75998,-85.2692 -91.72946,-98.87882 -21.2478,-5.35809 -43.06923,-6.43034 -121.35561,-5.96308 -61.39006,0.36642 -71.221,0.69596 -72.31294,2.42407 -1.49732,2.36964 -1.77738,317.23094 -0.28417,319.46676 0.53877,0.8067 1.87959,1.80933 2.97959,2.22806 1.1,0.41874 20.63533,0.8087 43.41185,0.86659 31.18072,0.0793 41.96696,-0.30649 43.65878,-1.5614 z m 2.92749,-162.52423 c -0.387,-1.0085 -0.54489,-20.72812 -0.35085,-43.82138 l 0.35277,-41.98773 26.66668,-0.38703 c 14.93749,-0.2168 30.47867,0.2477 35.33335,1.05602 24.08216,4.00978 37.33335,19.15317 37.33335,42.66434 0,13.39507 -3.25245,22.00286 -11.4175,30.21696 -10.95132,11.01712 -17.88655,12.67719 -56.23168,13.45998 -25.49118,0.52037 -31.1072,0.30748 -31.68612,-1.20116 z m 264.25286,-56.68416 c 13.32263,-6.322 15.37573,-27.07463 3.59529,-36.34112 -9.16715,-7.21087 -21.06803,-6.49525 -29.32677,1.76349 -13.64811,13.64811 -4.47204,36.78601 14.58867,36.78601 3.56894,0 8.58321,-0.99377 11.14281,-2.20838 z"
       id="path3776"
       inkscape:connector-curvature="0" /> 
    <path
       style="fill:#242424;stroke-width:1.33333373"
       d="M 54.831694,680.56318 C 35.853486,675.45878 17.8029,661.21036 8.9344594,644.33369 -0.70252123,625.99449 0,649.81956 0,341.33334 0,32.847129 -0.70252123,56.672205 8.9344594,38.333005 15.141741,26.520533 26.520545,15.141734 38.333022,8.9344555 56.67223,-0.70252092 32.847144,0 341.3335,0 c 308.48634,0 284.66126,-0.70252092 303.00047,8.9344555 11.81247,6.2072785 23.19128,17.5860775 29.39856,29.3985495 9.63698,18.3392 8.93446,-5.485876 8.93446,303.000335 0,308.48622 0.70252,284.66115 -8.93446,303.00035 -6.20728,11.81247 -17.58609,23.19127 -29.39856,29.39855 -18.34833,9.64176 5.59671,8.94405 -303.61394,8.8467 -238.73555,-0.0752 -279.748352,-0.36433 -285.888336,-2.01576 z M 288.28707,501.00002 c 0.15781,-0.18334 0.60781,-19.83334 1,-43.66667 l 0.71307,-43.33334 40.00002,-0.78908 c 33.97127,-0.67014 42.05987,-1.22658 53.66688,-3.69194 30.8109,-6.54432 50.42785,-16.59059 69.05848,-35.36638 10.07347,-10.15197 13.10223,-14.26093 18.39782,-24.95944 7.92075,-16.002 11.50853,-32.16927 11.50853,-51.85983 0,-63.24253 -42.27647,-106.0046 -113.29836,-114.59975 -8.59565,-1.04025 -37.73563,-1.40448 -90.66671,-1.13325 l -78.00004,0.39967 -0.34313,158 c -0.18872,86.9 -0.0576,158.75001 0.29148,159.66667 0.48975,1.28618 10.53702,1.66667 44.00983,1.66667 23.85636,0 43.50432,-0.15 43.66213,-0.33333 z m 1.0464,-203.76626 v -45.43292 l 34.33335,0.47612 c 32.39848,0.4493 34.78187,0.65432 42.29203,3.63798 10.76866,4.2782 20.76895,14.28708 24.10703,24.12775 3.19289,9.41263 3.26531,24.95861 0.15885,34.10304 -2.78199,8.18933 -9.75882,16.68755 -17.35454,21.13893 -10.18131,5.96664 -20.11164,7.34081 -53.20337,7.36231 l -30.33335,0.0197 z m 261.39611,-14.56708 c 4.1189,0 11.7619,-7.73014 13.30349,-13.45514 3.95552,-14.68969 -10.30407,-28.62911 -24.49553,-23.9455 -14.25825,4.70564 -18.40512,22.32193 -7.67461,32.60241 3.86842,3.70617 11.11811,6.35444 14.57972,5.32587 0.97664,-0.2902 2.90576,-0.52764 4.28693,-0.52764 z"
       id="path3782"
       inkscape:connector-curvature="0" />
  </g>
</svg>
