<?xml version="1.0" encoding="utf-8"?>
<!-- Generator: Adobe Illustrator 24.1.1, SVG Export Plug-In . SVG Version: 6.00 Build 0)  -->
<svg version="1.1" id="Camada_1" xmlns="http://www.w3.org/2000/svg" xmlns:xlink="http://www.w3.org/1999/xlink" x="0px" y="0px"
	 viewBox="0 0 500 125" style="enable-background:new 0 0 500 125;" xml:space="preserve">
<style type="text/css">
	.st0{fill:#FFD500;}
	.st1{fill:#F4F4F4;}
	.st2{fill:none;}
</style>
<g>
	<circle class="st0" cx="430.46" cy="25.09" r="6.25"/>
	<g>
		<g>
			<path class="st1" d="M465.82,24.6c-0.9,0.77-1.95,1.16-3.14,1.16c-1.53,0-2.76-0.53-3.71-1.59c-0.95-1.06-1.42-2.45-1.42-4.17
				c0-1.73,0.47-3.13,1.41-4.19c0.94-1.06,2.18-1.59,3.72-1.59c1.12,0,2.13,0.35,3.03,1.05c0.9,0.7,1.54,1.63,1.91,2.78h8.77
				c-0.46-3.5-1.95-6.32-4.47-8.48c-2.52-2.16-5.62-3.23-9.28-3.23c-2.71,0-5.16,0.59-7.33,1.76c-2.17,1.17-3.87,2.8-5.09,4.88
				c-1.22,2.08-1.83,4.42-1.83,7.02c0,2.59,0.61,4.93,1.83,7.02c1.22,2.08,2.92,3.71,5.09,4.88c2.17,1.17,4.62,1.76,7.33,1.76
				c3.72,0,6.86-1.12,9.41-3.35c2.55-2.23,4.02-5.15,4.43-8.76h-8.9C467.3,22.81,466.72,23.83,465.82,24.6z"/>
			<path class="st1" d="M497.41,17.5c-1.73-1.63-3.96-2.44-6.69-2.44c-0.28,0-0.66,0.01-1.14,0.04l4.84-7.88l-8.64,0l-4.09,6.68
				c-1.16,1.89-2.01,3.64-2.57,5.24c-0.55,1.6-0.83,3.18-0.83,4.76c0,2.89,1.01,5.24,3.02,7.05c2.02,1.81,4.63,2.72,7.85,2.72
				c3.26,0,5.88-0.9,7.87-2.71c1.99-1.81,2.98-4.18,2.98-7.13C500,21.24,499.14,19.13,497.41,17.5z M491.57,26.24
				c-0.62,0.62-1.43,0.93-2.42,0.93c-0.99,0-1.8-0.31-2.42-0.93c-0.62-0.62-0.94-1.43-0.94-2.42c0-0.99,0.31-1.81,0.94-2.44
				c0.62-0.64,1.43-0.95,2.42-0.95c0.99,0,1.8,0.32,2.42,0.95c0.62,0.64,0.93,1.45,0.93,2.44C492.5,24.81,492.19,25.62,491.57,26.24
				z"/>
		</g>
		<path class="st1" d="M66.11,4.29c6.36,2.86,11.27,6.95,14.72,12.27c3.45,5.32,5.18,11.56,5.18,18.74c0,7.18-1.73,13.41-5.18,18.67
			c-3.45,5.27-8.36,9.34-14.72,12.2c-6.36,2.86-13.86,4.29-22.49,4.29H26.99v26.85H0V0h43.62C52.25,0,59.75,1.43,66.11,4.29z
			 M54.53,45.6c2.82-2.41,4.23-5.84,4.23-10.29c0-4.45-1.41-7.91-4.23-10.36c-2.82-2.45-7-3.68-12.54-3.68H26.99v27.95h14.99
			C47.53,49.21,51.71,48.01,54.53,45.6z"/>
		<path class="st1" d="M149.95,30.6c6.45,5.59,9.68,14.16,9.68,25.7v41.03H135.5v-9.54c-3.73,7.18-11,10.77-21.81,10.77
			c-5.72,0-10.68-1-14.86-3c-4.18-2-7.34-4.7-9.47-8.11c-2.14-3.41-3.2-7.29-3.2-11.65c0-7,2.68-12.43,8.04-16.29
			c5.36-3.86,13.63-5.79,24.81-5.79h14.72c-0.46-7.81-5.68-11.72-15.68-11.72c-3.54,0-7.14,0.57-10.77,1.7
			c-3.64,1.14-6.73,2.7-9.27,4.7l-8.72-17.58c4.09-2.73,9.07-4.84,14.93-6.34c5.86-1.5,11.74-2.25,17.65-2.25
			C134.13,22.22,143.49,25.01,149.95,30.6z M128.82,80.02c2.27-1.45,3.91-3.59,4.91-6.41V67.2h-11.18c-7.54,0-11.31,2.5-11.31,7.5
			c0,2.27,0.86,4.09,2.59,5.45c1.73,1.36,4.09,2.05,7.09,2.05S126.54,81.47,128.82,80.02z"/>
		<path class="st1" d="M244,23.45l-31.9,76.88c-3.73,9.09-8.27,15.47-13.63,19.15c-5.36,3.68-11.91,5.52-19.63,5.52
			c-3.91,0-7.84-0.61-11.79-1.84c-3.95-1.23-7.16-2.84-9.61-4.84l9-18.13c1.45,1.36,3.2,2.43,5.25,3.2c2.05,0.77,4.11,1.16,6.2,1.16
			c2.45,0,4.48-0.5,6.07-1.5c1.59-1,2.93-2.59,4.02-4.77l-31.62-74.84h26.58l18.13,45.12l18.27-45.12H244z"/>
		<path class="st1" d="M312.44,47.57h23.85V87.1c-5.45,3.91-11.72,6.91-18.81,9c-7.09,2.09-14.18,3.14-21.26,3.14
			c-10,0-19-2.11-26.99-6.34c-8-4.23-14.27-10.11-18.81-17.65c-4.54-7.54-6.82-16.09-6.82-25.63s2.27-18.08,6.82-25.63
			c4.54-7.54,10.86-13.43,18.95-17.65C277.45,2.11,286.58,0,296.76,0c8.9,0,16.9,1.5,23.99,4.5c7.09,3,12.99,7.32,17.72,12.95
			L321.3,32.99c-6.45-7.09-14.18-10.63-23.17-10.63c-8.18,0-14.77,2.48-19.77,7.43c-5,4.95-7.5,11.57-7.5,19.83
			c0,5.27,1.14,9.97,3.41,14.11c2.27,4.14,5.45,7.36,9.54,9.68c4.09,2.32,8.77,3.48,14.04,3.48c5.18,0,10.04-1.04,14.59-3.14V47.57z
			"/>
		<path class="st1" d="M361.1,93.65c-6.36-3.27-11.34-7.81-14.93-13.63c-3.59-5.81-5.38-12.4-5.38-19.76
			c0-7.27,1.79-13.81,5.38-19.63c3.59-5.82,8.54-10.34,14.86-13.56c6.32-3.23,13.47-4.84,21.47-4.84c7.99,0,15.18,1.61,21.54,4.84
			c6.36,3.23,11.31,7.73,14.86,13.49c3.54,5.77,5.31,12.34,5.31,19.7c0,7.36-1.77,13.95-5.31,19.76
			c-3.54,5.82-8.5,10.36-14.86,13.63c-6.36,3.27-13.54,4.91-21.54,4.91C374.59,98.56,367.46,96.92,361.1,93.65z M393.68,73.27
			c2.91-3.13,4.36-7.47,4.36-13.02c0-5.45-1.46-9.72-4.36-12.81c-2.91-3.09-6.63-4.63-11.18-4.63c-4.55,0-8.27,1.55-11.18,4.63
			c-2.91,3.09-4.36,7.36-4.36,12.81c0,5.54,1.45,9.88,4.36,13.02c2.91,3.14,6.63,4.7,11.18,4.7
			C387.04,77.97,390.77,76.4,393.68,73.27z"/>
	</g>
</g>
<g>
	<g>
		<circle class="st0" cx="1531.99" cy="-322.33" r="6.23"/>
		<g>
			<g>
				<path class="st1" d="M1567.19-322.81c-0.9,0.77-1.94,1.16-3.12,1.16c-1.52,0-2.75-0.53-3.7-1.59c-0.94-1.06-1.42-2.44-1.42-4.15
					c0-1.72,0.47-3.11,1.41-4.17c0.94-1.06,2.17-1.59,3.7-1.59c1.11,0,2.12,0.35,3.01,1.05c0.9,0.7,1.53,1.62,1.9,2.77h8.74
					c-0.45-3.48-1.94-6.29-4.45-8.44c-2.51-2.15-5.59-3.22-9.24-3.22c-2.7,0-5.14,0.58-7.3,1.75c-2.16,1.17-3.85,2.79-5.07,4.86
					c-1.21,2.07-1.82,4.4-1.82,6.99c0,2.58,0.61,4.91,1.82,6.99c1.21,2.07,2.9,3.7,5.07,4.86c2.16,1.17,4.6,1.75,7.3,1.75
					c3.71,0,6.83-1.11,9.36-3.34c2.54-2.22,4.01-5.13,4.41-8.72h-8.86C1568.67-324.6,1568.09-323.59,1567.19-322.81z"/>
				<path class="st1" d="M1598.64-329.88c-1.72-1.62-3.94-2.43-6.67-2.43c-0.28,0-0.66,0.01-1.14,0.04l4.82-7.85l-8.61,0l-4.07,6.65
					c-1.15,1.89-2,3.62-2.55,5.21c-0.55,1.59-0.83,3.17-0.83,4.74c0,2.87,1,5.21,3.01,7.02c2.01,1.8,4.61,2.71,7.81,2.71
					c3.24,0,5.85-0.9,7.83-2.7c1.98-1.8,2.97-4.17,2.97-7.1C1601.22-326.17,1600.36-328.26,1598.64-329.88z M1592.83-321.19
					c-0.62,0.62-1.42,0.93-2.41,0.93c-0.99,0-1.79-0.31-2.41-0.93c-0.62-0.62-0.93-1.42-0.93-2.41c0-0.99,0.31-1.8,0.93-2.43
					c0.62-0.63,1.42-0.95,2.41-0.95c0.99,0,1.79,0.32,2.41,0.95c0.62,0.63,0.93,1.44,0.93,2.43
					C1593.76-322.61,1593.45-321.81,1592.83-321.19z"/>
			</g>
			<path class="st1" d="M1169.26-343.03c6.33,2.85,11.22,6.92,14.66,12.21c3.44,5.29,5.16,11.51,5.16,18.66
				c0,7.15-1.72,13.35-5.16,18.59c-3.44,5.25-8.33,9.3-14.66,12.15c-6.33,2.85-13.8,4.27-22.39,4.27h-16.56v26.73h-26.87v-96.9
				h43.43C1155.46-347.31,1162.92-345.89,1169.26-343.03z M1157.72-301.91c2.8-2.4,4.21-5.81,4.21-10.25c0-4.43-1.4-7.87-4.21-10.31
				c-2.81-2.44-6.97-3.66-12.49-3.66h-14.93v27.82h14.93C1150.75-298.32,1154.91-299.52,1157.72-301.91z"/>
			<path class="st1" d="M1252.72-316.84c6.42,5.56,9.64,14.09,9.64,25.58v40.85h-24.02v-9.5c-3.71,7.15-10.95,10.72-21.71,10.72
				c-5.7,0-10.63-1-14.79-2.99c-4.16-1.99-7.31-4.68-9.43-8.07c-2.13-3.39-3.19-7.26-3.19-11.6c0-6.97,2.67-12.37,8.01-16.22
				c5.34-3.84,13.57-5.77,24.7-5.77h14.66c-0.45-7.78-5.66-11.67-15.61-11.67c-3.53,0-7.1,0.57-10.72,1.7
				c-3.62,1.13-6.7,2.69-9.23,4.68l-8.69-17.51c4.07-2.71,9.02-4.82,14.86-6.31c5.83-1.49,11.69-2.24,17.57-2.24
				C1236.98-325.19,1246.29-322.41,1252.72-316.84z M1231.68-267.65c2.26-1.45,3.89-3.57,4.89-6.38v-6.38h-11.13
				c-7.51,0-11.26,2.49-11.26,7.46c0,2.26,0.86,4.07,2.58,5.43c1.72,1.36,4.07,2.04,7.06,2.04
				C1226.8-265.48,1229.42-266.2,1231.68-267.65z"/>
			<path class="st1" d="M1346.36-323.97l-31.76,76.54c-3.71,9.05-8.23,15.4-13.57,19.07c-5.34,3.66-11.85,5.5-19.54,5.5
				c-3.89,0-7.8-0.61-11.74-1.83c-3.94-1.22-7.13-2.83-9.57-4.82l8.96-18.05c1.45,1.36,3.19,2.42,5.22,3.19
				c2.04,0.77,4.09,1.15,6.17,1.15c2.44,0,4.46-0.5,6.04-1.49c1.58-1,2.92-2.58,4-4.75l-31.48-74.51h26.46l18.05,44.92l18.19-44.92
				H1346.36z"/>
			<path class="st1" d="M1414.49-299.95h23.75v39.36c-5.43,3.89-11.67,6.88-18.73,8.96c-7.06,2.08-14.11,3.12-21.17,3.12
				c-9.95,0-18.91-2.1-26.87-6.31c-7.96-4.21-14.2-10.06-18.73-17.57c-4.52-7.51-6.79-16.01-6.79-25.51s2.26-18,6.79-25.51
				c4.52-7.51,10.81-13.37,18.86-17.57c8.05-4.21,17.14-6.31,27.28-6.31c8.86,0,16.83,1.49,23.89,4.48
				c7.06,2.99,12.94,7.28,17.64,12.89l-17.1,15.47c-6.43-7.06-14.11-10.59-23.07-10.59c-8.14,0-14.7,2.47-19.68,7.4
				c-4.98,4.93-7.46,11.51-7.46,19.75c0,5.25,1.13,9.93,3.39,14.05c2.26,4.12,5.43,7.33,9.5,9.64c4.07,2.31,8.73,3.46,13.98,3.46
				c5.16,0,10-1.04,14.52-3.12V-299.95z"/>
			<path class="st1" d="M1462.94-254.08c-6.33-3.26-11.29-7.78-14.86-13.57c-3.58-5.79-5.36-12.35-5.36-19.68
				c0-7.24,1.78-13.75,5.36-19.54c3.57-5.79,8.5-10.29,14.79-13.5c6.29-3.21,13.41-4.82,21.38-4.82c7.96,0,15.11,1.61,21.44,4.82
				c6.33,3.21,11.26,7.69,14.79,13.44c3.53,5.75,5.29,12.28,5.29,19.61c0,7.33-1.76,13.89-5.29,19.68
				c-3.53,5.79-8.46,10.31-14.79,13.57c-6.33,3.26-13.48,4.89-21.44,4.89C1476.37-249.19,1469.27-250.82,1462.94-254.08z
				 M1495.37-274.37c2.9-3.12,4.34-7.44,4.34-12.96c0-5.43-1.45-9.68-4.34-12.76c-2.9-3.07-6.6-4.61-11.13-4.61
				c-4.53,0-8.23,1.54-11.13,4.61c-2.9,3.08-4.34,7.33-4.34,12.76c0,5.52,1.45,9.84,4.34,12.96c2.89,3.12,6.6,4.68,11.13,4.68
				C1488.77-269.68,1492.47-271.24,1495.37-274.37z"/>
		</g>
	</g>
	<rect x="1006.54" y="-444.21" class="st2" width="616.13" height="318.24"/>
</g>
</svg>
